<svg width="23" height="23" viewBox="0 0 23 23" fill="none" xmlns="http://www.w3.org/2000/svg">
<g clip-path="url(#clip0_35_602)">
<path d="M17.8462 9.47998H5.15387L4.39233 12.8646H18.6077L17.8462 9.47998Z" fill="#5679B6"/>
<path d="M20.5961 2.92236H2.40386C1.35405 2.92236 0.5 3.77641 0.5 4.82618V10.9608C0.5 12.0106 1.35405 12.8646 2.40386 12.8646H3.09136L4.02705 8.70613C4.09219 8.41652 4.34936 8.21078 4.64618 8.21078H18.3539C18.6507 8.21078 18.9079 8.41652 18.973 8.70613L19.9087 12.8646H20.5962C21.646 12.8646 22.5 12.0106 22.5 10.9608V4.82618C22.5 3.77641 21.646 2.92236 20.5961 2.92236ZM14.8846 7.36464H14.0385C13.688 7.36464 13.4039 7.08049 13.4039 6.73004C13.4039 6.37959 13.688 6.09543 14.0385 6.09543H14.8846C15.2351 6.09543 15.5192 6.37959 15.5192 6.73004C15.5192 7.08049 15.2351 7.36464 14.8846 7.36464ZM17.8461 7.36464H17C16.6495 7.36464 16.3654 7.08049 16.3654 6.73004C16.3654 6.37959 16.6495 6.09543 17 6.09543H17.8461C18.1966 6.09543 18.4807 6.37959 18.4807 6.73004C18.4807 7.08049 18.1966 7.36464 17.8461 7.36464Z" fill="#5679B6"/>
<path d="M11.9231 15.7552C11.9231 15.5784 11.956 15.5235 12.0442 15.3766C12.1644 15.1762 12.3462 14.8734 12.3462 14.3451C12.3462 13.9946 12.062 13.7104 11.7115 13.7104C11.3611 13.7104 11.0769 13.9946 11.0769 14.3451C11.0769 14.5218 11.044 14.5767 10.9559 14.7236C10.8356 14.924 10.6539 15.2268 10.6539 15.7552C10.6539 16.2835 10.8356 16.5864 10.9558 16.7868C11.0439 16.9338 11.0769 16.9887 11.0769 17.1655C11.0769 17.3423 11.044 17.3973 10.9558 17.5441C10.8356 17.7446 10.6539 18.0475 10.6539 18.5758C10.6539 18.9263 10.938 19.2104 11.2885 19.2104C11.6389 19.2104 11.9231 18.9263 11.9231 18.5758C11.9231 18.399 11.956 18.344 12.0442 18.1972C12.1644 17.9968 12.3462 17.6939 12.3462 17.1655C12.3462 16.6371 12.1644 16.3343 12.0442 16.1338C11.9561 15.9869 11.9231 15.932 11.9231 15.7552Z" fill="#5679B6"/>
<path d="M8.53847 15.7552C8.53847 15.5784 8.57142 15.5235 8.65955 15.3766C8.77982 15.1762 8.96154 14.8734 8.96154 14.3451C8.96154 13.9946 8.67739 13.7104 8.32693 13.7104C7.97648 13.7104 7.69233 13.9946 7.69233 14.3451C7.69233 14.5218 7.65937 14.5767 7.57124 14.7236C7.45097 14.924 7.26926 15.2268 7.26926 15.7552C7.26926 16.2835 7.45097 16.5864 7.5712 16.7868C7.65933 16.9338 7.69233 16.9887 7.69233 17.1655C7.69233 17.3423 7.65937 17.3973 7.5712 17.5441C7.45097 17.7446 7.26926 18.0475 7.26926 18.5758C7.26926 18.9263 7.55341 19.2104 7.90386 19.2104C8.25432 19.2104 8.53847 18.9263 8.53847 18.5758C8.53847 18.399 8.57142 18.344 8.6596 18.1972C8.77982 17.9968 8.96154 17.6939 8.96154 17.1655C8.96154 16.6371 8.77982 16.3343 8.6596 16.1338C8.57147 15.9869 8.53847 15.932 8.53847 15.7552Z" fill="#5679B6"/>
<path d="M15.3077 15.7552C15.3077 15.5784 15.3406 15.5235 15.4287 15.3766C15.549 15.1762 15.7307 14.8734 15.7307 14.3451C15.7307 13.9946 15.4466 13.7104 15.0961 13.7104C14.7457 13.7104 14.4615 13.9946 14.4615 14.3451C14.4615 14.5218 14.4286 14.5767 14.3404 14.7236C14.2202 14.924 14.0385 15.2268 14.0385 15.7552C14.0385 16.2835 14.2202 16.5864 14.3404 16.7868C14.4285 16.9338 14.4615 16.9887 14.4615 17.1655C14.4615 17.3423 14.4286 17.3973 14.3404 17.5441C14.2202 17.7446 14.0385 18.0475 14.0385 18.5758C14.0385 18.9263 14.3226 19.2104 14.6731 19.2104C15.0235 19.2104 15.3077 18.9263 15.3077 18.5758C15.3077 18.399 15.3406 18.344 15.4288 18.1972C15.549 17.9968 15.7307 17.6939 15.7307 17.1655C15.7307 16.6371 15.549 16.3343 15.4288 16.1338C15.3407 15.9869 15.3077 15.932 15.3077 15.7552Z" fill="#5679B6"/>
</g>
<defs>
<clipPath id="clip0_35_602">
<rect width="22" height="22" fill="white" transform="translate(0.5 0.0664062)"/>
</clipPath>
</defs>
</svg>
