<svg width="76" height="75" viewBox="0 0 76 75" fill="none" xmlns="http://www.w3.org/2000/svg">
<path d="M69.1795 74.4304H3.32404C1.21471 74.4304 -0.274288 72.352 0.392631 70.3512L4.51834 57.9432C4.95257 56.6714 6.13135 55.8184 7.46519 55.8184H8.92313C8.4889 56.2836 8.16316 56.8265 7.96152 57.4469L5.37138 65.2019C4.89057 66.6443 5.12316 68.1643 6.00724 69.3896C6.89132 70.6304 8.27174 71.3284 9.79169 71.3284H62.7273C64.2318 71.3284 65.6122 70.6304 66.4963 69.3896C67.3803 68.1643 67.6129 66.6443 67.1321 65.2019L64.542 57.4469C64.3403 56.8265 64.0147 56.2836 63.5804 55.8184H65.0383C66.3721 55.8184 67.5509 56.6714 67.9852 57.9432L72.1109 70.3512C72.7778 72.352 71.2889 74.4304 69.1795 74.4304Z" fill="#2E2E2E"/>
<path d="M63.9837 67.5747C63.689 67.9935 63.2237 68.2261 62.7274 68.2261H9.79173C9.27988 68.2261 8.8146 67.9935 8.5199 67.5747C8.22521 67.1715 8.14768 66.6596 8.31827 66.1788L10.893 58.4238C11.1101 57.7878 11.6995 57.3691 12.3664 57.3691H15.6235L16.5851 65.1241H40.6876L41.6648 57.3691H60.1372C60.8041 57.3691 61.3935 57.7878 61.6106 58.4238L64.1853 66.1788C64.3559 66.6596 64.2784 67.1715 63.9837 67.5747Z" fill="#2E2E2E"/>
<path d="M17.7788 49.6143L19.3298 62.0223H37.9418L39.4928 49.6143H17.7788ZM25.5338 55.8183H22.4318V52.7163H25.5338V55.8183ZM30.1868 58.9203H27.0848V55.8183H30.1868V58.9203ZM34.8398 55.8183H31.7378V52.7163H34.8398V55.8183Z" fill="#2E2E2E"/>
<path d="M42.6009 43.4102H14.6829V46.5122H42.6009V43.4102Z" fill="#2E2E2E"/>
<path d="M31.4833 45.8218L28.9023 44.1012L33.5553 36.3462L36.1363 38.0668L31.4833 45.8218Z" fill="#2E2E2E"/>
<path d="M65.8911 36.865V44.8527C65.8911 46.5588 64.5107 47.9547 62.7891 47.9547C61.9361 47.9547 61.1606 47.598 60.6022 47.0396C60.0439 46.4813 59.7026 45.7058 59.7026 44.8527V36.865C61.7189 36.3067 63.8748 36.3067 65.8911 36.865Z" fill="#2E2E2E"/>
<path d="M70.4508 25.9928C71.6451 29.4516 73.4287 32.7086 74.7626 34.8956C75.352 35.8727 74.4369 37.0669 73.3356 36.7413C71.5831 36.2294 69.7994 35.609 68.6982 34.9576C67.8141 34.4302 66.868 34.0425 65.8909 33.7788V33.7633C63.8746 33.205 61.7187 33.205 59.7024 33.7633C58.7253 34.027 57.7792 34.4302 56.8796 34.9576C55.7938 35.609 54.0102 36.2294 52.2576 36.7413C51.1564 37.0669 50.2413 35.8727 50.8307 34.8956C52.1646 32.7086 53.9481 29.4516 55.1424 25.9928C55.4682 25.0312 52.9865 25.6361 52.0094 25.9463L51.994 25.9618C50.9082 26.3185 49.9466 25.1242 50.536 24.1316L56.4609 15.1203C56.9571 14.2827 54.8013 13.2281 53.8397 13.2281H53.638C52.5213 13.2281 51.9474 11.8942 52.7384 11.1032C55.0183 8.79223 60.0901 3.56536 61.7962 1.28535C62.2925 0.618427 63.2852 0.618427 63.7815 1.28535C65.4876 3.56536 70.5749 8.79223 72.8548 11.1032C73.6303 11.8942 73.072 13.2281 71.9553 13.2281H71.7537C70.7766 13.2281 68.6362 14.2827 69.1325 15.1203L75.0573 24.1316C75.6312 25.1242 74.6851 26.3185 73.5839 25.9618L73.5683 25.9463C72.6067 25.6361 70.1096 25.0312 70.4508 25.9928Z" fill="#2E2E2E"/>
</svg>
