<svg width="31" height="31" viewBox="0 0 31 31" fill="none" xmlns="http://www.w3.org/2000/svg">
<g clip-path="url(#clip0_21_617)">
<path d="M22.8506 27.3218L28.376 21.7905V28.4644C28.376 28.8745 28.0479 29.2026 27.6377 29.2026H2.6416C2.2373 29.2026 1.90332 28.8745 1.90332 28.4644V26.8062C2.2959 27.187 2.8291 27.4155 3.41504 27.4155C3.54395 27.3921 22.6338 27.4624 22.7451 27.3921C22.7861 27.3745 22.8213 27.3511 22.8506 27.3218ZM23.1377 21.3218C23.0322 21.3218 22.9443 21.4097 22.9443 21.5151V26.2847C24.1807 25.0483 26.6709 22.5581 27.9072 21.3218H23.1377ZM24.4971 3.80811V1.54053C24.4912 0.87842 23.5068 0.872561 23.4951 1.54053V3.80811C23.5068 4.47022 24.4854 4.46436 24.4971 3.80811ZM18.5967 3.80811V1.54053C18.585 0.87842 17.6006 0.872561 17.5889 1.54053V3.80811C17.6006 4.47022 18.585 4.46436 18.5967 3.80811ZM12.6904 3.80811V1.54053C12.6787 0.87842 11.7002 0.872561 11.6885 1.54053V3.80811C11.7002 4.47022 12.6787 4.46436 12.6904 3.80811ZM6.29199 4.30615C6.56738 4.30615 6.7959 4.07764 6.7959 3.80225V1.54053C6.78418 0.87842 5.7998 0.87842 5.78809 1.54053V3.80811C5.78223 4.0835 6.01074 4.30615 6.29199 4.30615ZM29.3662 3.00537H25.1592V3.80811C25.1592 4.44678 24.6377 4.97412 23.9932 4.97412C23.3545 4.97412 22.833 4.44678 22.833 3.80811V3.00537H19.2646V3.80811C19.2646 4.44678 18.7373 4.97412 18.0928 4.97412C17.4482 4.97412 16.9268 4.44678 16.9268 3.80811V3.00537H13.3584V3.80811C13.3584 4.44678 12.8311 4.97412 12.1865 4.97412C11.5479 4.97412 11.0264 4.44678 11.0264 3.80811V3.00537H7.45801V3.80811C7.45801 4.44678 6.93066 4.97412 6.29199 4.97412C5.64746 4.97412 5.12012 4.44678 5.12012 3.80811V3.00537H0.918945C0.520508 3.00537 0.198242 3.32764 0.198242 3.72022V5.53662C0.198242 5.93506 0.520508 6.25733 0.918945 6.25733H29.3662C29.7588 6.25733 30.0811 5.93506 30.0811 5.53662V3.72022C30.0811 3.32764 29.7588 3.00537 29.3662 3.00537ZM1.90332 6.92529H28.376V20.6597H23.1377C22.6689 20.6597 22.2822 21.0464 22.2822 21.5151V26.7534H3.41504C2.58301 26.7534 1.90918 26.0796 1.90918 25.2476V6.92529H1.90332ZM22.335 18.9897C22.3467 18.8081 22.2178 18.644 22.0303 18.6265C21.9131 18.6206 21.8135 18.5034 21.8252 18.3862C21.8545 17.9526 21.21 17.894 21.1631 18.3276C21.1514 18.4448 21.04 18.5386 20.9229 18.5327C20.4893 18.5034 20.4248 19.1421 20.8643 19.1948C20.999 19.2007 21.0869 19.3355 21.0693 19.4644C21.0752 19.8804 21.6904 19.9097 21.7314 19.4937C21.7432 19.3765 21.8545 19.2827 21.9717 19.2886C22.1592 19.3062 22.3174 19.1714 22.335 18.9897ZM21.6729 16.0366C20.0381 15.8022 18.8604 16.9214 18.6436 17.144C18.3447 17.4605 18.8193 17.9233 19.124 17.6069C19.792 16.8628 21.5967 16.0835 22.9854 17.3491C23.126 17.4663 23.3369 17.4546 23.4541 17.3198C23.8877 16.7983 22.3584 16.1187 21.6729 16.0366ZM21.9541 13.353C22.0127 12.5503 20.8232 12.4448 20.7412 13.2417C20.6885 14.0503 21.8662 14.1499 21.9541 13.353ZM23.9229 13.7456C23.7998 13.7339 23.7061 13.6284 23.7178 13.5054C23.7471 13.0659 23.1025 13.0132 23.0557 13.4468C23.0498 13.5698 22.9326 13.6577 22.8154 13.6519C22.3818 13.6226 22.3174 14.2612 22.7568 14.314C22.8975 14.3257 22.9736 14.4546 22.9619 14.5835C22.9619 14.9937 23.5889 15.0288 23.624 14.6128C23.6357 14.4897 23.7471 14.396 23.8643 14.4077C24.0518 14.4253 24.2041 14.2905 24.2217 14.103C24.2451 13.9331 24.0986 13.7632 23.9229 13.7456ZM21.6084 10.8394C21.0928 11.0796 20.2021 11.8413 20.7119 12.1929C20.8643 12.2925 21.0752 12.2397 21.1689 12.0815C21.7021 11.1616 22.8623 11.1909 23.4189 11.5366C23.8057 11.7417 24.1221 11.1675 23.7354 10.9507C23.5596 10.8569 22.6104 10.3882 21.6084 10.8394ZM19.5693 9.29834C19.5576 9.47998 19.6865 9.64405 19.874 9.66162C20.0264 9.67334 20.167 9.74951 20.2666 9.8667C20.3779 9.99561 20.4131 10.1538 20.4014 10.3237C20.4014 10.4937 20.5303 10.6401 20.7061 10.6519C20.8818 10.6753 21.0518 10.5347 21.0635 10.353C21.0928 10.0308 21.374 9.79639 21.6963 9.81983C22.1357 9.86084 22.1885 9.20459 21.7549 9.15772C21.4385 9.13428 21.1924 8.84131 21.2275 8.5249C21.2393 8.34326 21.1104 8.1792 20.9229 8.16748C20.7354 8.1499 20.5771 8.28467 20.5654 8.46631C20.5361 8.78858 20.2549 9.02881 19.9326 8.99951C19.7451 8.98194 19.5869 9.12256 19.5693 9.29834ZM19.0303 14.1733C18.7139 14.2847 18.6494 14.5425 18.5967 14.7065C18.1807 14.3257 17.6123 14.5132 17.5068 15.064C17.3662 14.9644 17.167 14.7944 16.8447 14.894C16.4521 15.023 16.6162 15.6206 17.0205 15.5327C17.4775 15.9487 18.0342 15.7788 18.1572 15.2046C18.6143 15.6089 19.1592 15.3745 19.2646 14.7944C19.4229 14.7241 19.499 14.5483 19.4463 14.3843C19.3936 14.2144 19.2061 14.1206 19.0303 14.1733ZM14.6416 13.4878C14.208 13.4702 14.1553 14.103 14.5889 14.1499C15.5674 14.1733 16.9912 14.1206 18.3037 12.7378C18.8779 12.1636 19.7861 10.1655 19.042 10.0835C18.8662 10.0601 18.6904 10.189 18.6729 10.3706C18.6025 10.8862 18.4033 11.6362 17.8115 12.2983C16.6631 13.5815 14.9697 13.5171 14.6416 13.4878ZM15.8252 10.0308C15.2744 9.91358 14.8818 10.353 15.0635 10.8921C14.8936 10.8745 14.6299 10.8276 14.4072 11.0796C14.1318 11.3901 14.5771 11.8237 14.8818 11.5425C15.4678 11.6597 15.8838 11.2788 15.6963 10.687C16.2471 10.8042 16.6396 10.3647 16.458 9.82569C17.0615 9.94287 17.4072 9.46241 17.208 8.91162C17.4541 8.57764 16.9619 8.18506 16.6924 8.50147C16.4756 8.75342 16.5518 9.01123 16.5869 9.18116C16.0537 9.05811 15.6494 9.4917 15.8193 10.0132C15.8193 10.0132 15.8193 10.019 15.8252 10.0308ZM14.7061 9.23975C15.5088 9.28662 15.6084 8.10889 14.8115 8.021C14.0088 7.9624 13.915 9.15772 14.7061 9.23975ZM12.0752 8.61866C12.8311 9.53272 12.7725 11.1968 12.1514 12.0522C11.917 12.4155 12.4678 12.7788 12.708 12.4097C12.9482 12.0288 13.3584 11.2378 13.2998 10.1772C13.2588 9.3042 12.6846 7.75733 12.1455 8.15576C11.9932 8.26123 11.9639 8.47217 12.0752 8.61866ZM6.59082 25.5757L18.1162 19.8804C18.1631 19.8628 18.21 19.8335 18.2451 19.7983C18.5029 19.523 18.3271 19.189 17.3545 18.1167C16.0771 16.7046 13.5459 14.3257 12.0518 13.1362C10.8506 12.1987 10.5342 11.9819 10.2471 12.4741C9.6084 13.9917 8.1377 17.5132 7.48145 19.0659C6.97168 20.2964 5.79395 23.0855 5.27246 24.3452C4.89746 25.1245 5.82324 25.9917 6.59082 25.5757ZM16.2998 17.9761C15.333 16.9565 13.3291 15.0698 12.251 14.1675C13.5342 15.4976 14.8936 16.7808 16.2998 17.9761ZM10.6045 13.312L9.94238 14.894L13.3877 16.2358C12.4209 15.3042 11.4365 14.3726 10.6045 13.312ZM17.2549 19.564C16.3525 18.9429 15.5264 18.1929 14.7061 17.4605L9.69043 15.5034L9.08691 16.939L16.6162 19.8804L17.2549 19.564ZM15.8076 20.2788L8.8291 17.5542L8.22559 18.9956L13.915 21.2163L15.8076 20.2788ZM13.1064 21.6147L7.96777 19.6108L7.36426 21.0464L11.2139 22.5464L13.1064 21.6147ZM6.29199 24.9839L10.4111 22.9507L7.10645 21.6616L5.87598 24.5972C5.7998 24.7788 5.91113 24.9019 5.94629 24.937C5.9873 24.9663 6.11621 25.0718 6.29199 24.9839Z" fill="#2E2E2E"/>
</g>
<defs>
<clipPath id="clip0_21_617">
<rect width="30" height="30" fill="white" transform="translate(0.139648 0.122559)"/>
</clipPath>
</defs>
</svg>
