<svg width="48" height="49" viewBox="0 0 48 49" fill="none" xmlns="http://www.w3.org/2000/svg">
<path d="M35.7801 18.1745C36.2047 18.1745 36.608 17.9983 36.8868 17.6916C37.1647 17.3845 37.3022 16.9661 37.2608 16.5441L36.2842 6.22846C36.2046 5.39776 35.49 4.74653 34.6552 4.74653H30.8237V2.47495C30.8237 1.61465 30.1232 0.915039 29.2639 0.915039H28.4086C27.5486 0.915039 26.8483 1.61465 26.8483 2.47495V4.74661H12.2327C11.394 4.74661 10.681 5.40164 10.6101 6.23879L9.74178 16.5506C9.70623 16.9726 9.84584 17.3892 10.1256 17.6941C10.4056 17.9992 10.8097 18.1746 11.2333 18.1746H12.0133V30.0848C12.0133 30.5158 11.8428 31.1689 11.6311 31.5441L10.6196 33.3342C10.4082 33.7093 10.2355 34.3625 10.2355 34.7936V48.1349C10.2355 48.5668 10.5846 48.915 11.0158 48.915H36.1713C36.6027 48.915 36.9511 48.5667 36.9511 48.1349V34.7935C36.9511 34.3625 36.7675 33.7161 36.5405 33.3506L35.4112 31.5268C35.1847 31.1609 35.0003 30.5153 35.0003 30.0838V18.1745H35.7801ZM35.7801 16.6144H35.7805L35.7801 17.3945V16.6144ZM17.0865 39.7981C17.0865 40.2292 16.7379 40.5782 16.3066 40.5782H13.7857C13.354 40.5782 13.0058 40.2291 13.0058 39.7981V33.8632C13.0058 33.4317 13.354 33.0827 13.7857 33.0827H16.3066C16.7379 33.0827 17.0865 33.4318 17.0865 33.8632V39.7981ZM16.5149 27.8049V21.8693C16.5149 21.4389 16.8636 21.0894 17.2948 21.0894H19.8158C20.2474 21.0894 20.5961 21.4389 20.5961 21.8693V27.8049C20.5961 28.236 20.2474 28.5848 19.8158 28.5848H17.2948C16.8644 28.5847 16.5149 28.236 16.5149 27.8049ZM26.4543 42.4674C26.4543 42.8989 26.1052 43.2472 25.6738 43.2472H21.2863C20.855 43.2472 20.5063 42.8989 20.5063 42.4674V33.8632C20.5063 33.4317 20.855 33.0827 21.2863 33.0827H25.6738C26.1053 33.0827 26.4543 33.4318 26.4543 33.8632V42.4674ZM27.1364 44.9537C27.1364 45.3573 26.7877 45.6855 26.3567 45.6855H20.6038C20.1724 45.6855 19.8237 45.3581 19.8237 44.9537C19.8237 44.5495 20.1724 44.2226 20.6038 44.2226H26.3567C26.7877 44.2226 27.1364 44.5495 27.1364 44.9537ZM27.3313 47.9275H19.6288C19.1976 47.9275 18.8489 47.6214 18.8489 47.245C18.8489 46.8682 19.1976 46.562 19.6288 46.562H27.3313C27.7628 46.562 28.1118 46.8682 28.1118 47.245C28.1118 47.6214 27.7627 47.9275 27.3313 47.9275ZM27.1646 28.5847C26.7331 28.5847 26.3844 28.2359 26.3844 27.8048V21.8692C26.3844 21.4388 26.7332 21.0893 27.1646 21.0893H29.6857C30.1172 21.0893 30.4654 21.4388 30.4654 21.8692V27.8048C30.4654 28.2359 30.1172 28.5847 29.6857 28.5847H27.1646ZM33.8571 39.7981C33.8571 40.2292 33.5084 40.5782 33.0773 40.5782H30.5558C30.1247 40.5782 29.7764 40.2291 29.7764 39.7981V33.8632C29.7764 33.4317 30.1247 33.0827 30.5558 33.0827H33.0773C33.5084 33.0827 33.8571 33.4318 33.8571 33.8632V39.7981ZM28.8252 16.6144C28.7718 16.5101 28.7337 16.3961 28.7321 16.2714C28.7195 15.5451 28.7023 14.3791 28.6827 13.0647C28.6473 10.8633 26.7404 9.07871 24.4212 9.07871H23.0717C20.7528 9.07871 18.8727 10.8633 18.8727 13.0647V16.2706C18.8727 16.3961 18.8369 16.5102 18.7848 16.6145H11.3028L12.1639 6.37057C12.1663 6.34406 12.2069 6.30653 12.2326 6.30653H26.8483C27.708 6.30653 28.4085 5.60692 28.4085 4.74661V2.47495H29.2638V4.74661C29.2638 5.60692 29.9632 6.30653 30.8237 6.30653H34.6552C34.6842 6.30653 34.7291 6.34871 34.732 6.37677L35.7009 16.6144H28.8252Z" fill="#2E2E2E"/>
<path d="M4.7358 34.8463C3.35457 37.0027 2.72968 39.1238 2.52835 41.0408C2.2586 40.6949 1.79621 40.713 1.54978 41.097C-1.02219 45.111 1.1059 48.9148 1.1059 48.9148H2.09549C2.10891 47.9599 2.11356 47.0142 2.10168 46.0657C2.09325 44.8695 2.05977 43.6748 2.08783 42.4599C2.39898 43.6378 2.51363 44.8498 2.53472 46.0609C2.53877 47.0142 2.4817 47.9783 2.2802 48.9147H3.34519C3.43316 48.6491 3.50727 48.3913 3.57191 48.1366C3.78184 48.6347 3.93643 48.9147 3.93643 48.9147H5.71945C5.74114 47.1965 5.75242 45.4949 5.72969 43.7872C5.71541 41.6339 5.65395 39.4828 5.70379 37.2975C6.26464 39.417 6.4707 41.5995 6.50883 43.7797C6.51606 45.4942 6.412 47.23 6.05092 48.9148H7.96667C10.285 41.959 7.99481 37.002 6.57752 34.8185C6.10721 34.0972 5.20094 34.1205 4.7358 34.8463Z" fill="#2E2E2E"/>
<path d="M46.0583 41.0832C45.7968 40.681 45.2939 40.6943 45.0347 41.0976C44.9469 41.2347 44.8773 41.3717 44.7998 41.5079C44.6547 39.472 44.0457 37.1786 42.5502 34.8462C42.0846 34.1199 41.1791 34.0962 40.7095 34.8193C39.2922 37.0026 37.0025 41.9597 39.3204 48.9151H41.2361C40.8746 47.2303 40.771 45.4949 40.7782 43.7804C40.8168 41.5995 41.0225 39.417 41.5829 37.298C41.6331 39.4845 41.5716 41.6349 41.5576 43.788C41.5351 45.4953 41.5447 47.1978 41.5676 48.9151H43.3508C43.3508 48.9151 43.6718 48.3378 44.0161 47.3448C44.2595 48.3129 44.5901 48.9151 44.5901 48.9151H45.5803C45.5931 47.9602 45.598 47.0149 45.5863 46.0665C45.5774 44.8698 45.5441 43.676 45.5718 42.4604C45.8832 43.6382 45.9976 44.8502 46.0189 46.0618C46.0229 47.0149 45.9663 47.9787 45.7651 48.9151H46.8292C48.1184 45.0501 46.8461 42.2956 46.0583 41.0832Z" fill="#2E2E2E"/>
</svg>
