<svg width="23" height="23" viewBox="0 0 23 23" fill="none" xmlns="http://www.w3.org/2000/svg">
<g clip-path="url(#clip0_35_653)">
<path d="M20.1958 0.0664062H2.8043C1.83839 0.0664062 1.05264 0.852152 1.05264 1.81807V19.2096C1.05264 20.1333 1.77157 20.8924 2.67919 20.9569V21.4409C2.67919 21.7864 2.95933 22.0665 3.30478 22.0665H5.07734C5.42279 22.0665 5.70293 21.7864 5.70293 21.4409V20.9612H17.1096V21.4408C17.1096 21.7863 17.3898 22.0664 17.7352 22.0664H19.5078C19.8532 22.0664 20.1334 21.7863 20.1334 21.4408V20.9612H20.1959C21.1618 20.9612 21.9476 20.1755 21.9476 19.2096V1.81807C21.9475 0.852152 21.1616 0.0664062 20.1958 0.0664062ZM20.1332 17.4892C20.1332 18.4033 19.3895 19.147 18.4754 19.147H4.33701C3.42289 19.147 2.67919 18.4033 2.67919 17.4892V3.41333C2.67919 2.49921 3.42289 1.75551 4.33701 1.75551H18.4754C19.3895 1.75551 20.1332 2.49921 20.1332 3.41333V17.4892ZM9.31598 10.4825C9.31598 11.2759 8.6705 11.9214 7.87712 11.9214C7.08374 11.9214 6.43825 11.2759 6.43825 10.4825C6.43825 9.68916 7.08374 9.04368 7.87712 9.04368C8.6705 9.04368 9.31598 9.68916 9.31598 10.4825ZM18.4754 3.0067H4.33701C4.1128 3.0067 3.93037 3.18912 3.93037 3.41333V17.4892C3.93037 17.7134 4.1128 17.8958 4.33701 17.8958H18.4754C18.6996 17.8958 18.8821 17.7134 18.8821 17.4892V3.41333C18.8821 3.18912 18.6996 3.0067 18.4754 3.0067ZM7.87712 13.1726C6.39384 13.1726 5.18707 11.9658 5.18707 10.4825C5.18707 8.99926 6.39384 7.79249 7.87712 7.79249C9.3604 7.79249 10.5672 8.99926 10.5672 10.4825C10.5672 11.9658 9.3604 13.1726 7.87712 13.1726ZM12.8362 13.183H12.5323C12.1868 13.183 11.9067 12.9028 11.9067 12.5574C11.9067 12.2119 12.1868 11.9318 12.5323 11.9318H12.8362C13.1817 11.9318 13.4618 12.2119 13.4618 12.5574C13.4618 12.9028 13.1817 13.183 12.8362 13.183ZM12.8362 11.1394H12.5323C12.1868 11.1394 11.9067 10.8593 11.9067 10.5138C11.9067 10.1684 12.1868 9.88823 12.5323 9.88823H12.8362C13.1817 9.88823 13.4618 10.1684 13.4618 10.5138C13.4618 10.8593 13.1817 11.1394 12.8362 11.1394ZM12.8362 9.09585H12.5323C12.1868 9.09585 11.9067 8.81571 11.9067 8.47026C11.9067 8.1248 12.1868 7.84466 12.5323 7.84466H12.8362C13.1817 7.84466 13.4618 8.1248 13.4618 8.47026C13.4618 8.81571 13.1817 9.09585 12.8362 9.09585ZM14.9632 13.183H14.6593C14.3139 13.183 14.0337 12.9028 14.0337 12.5574C14.0337 12.2119 14.3139 11.9318 14.6593 11.9318H14.9632C15.3087 11.9318 15.5888 12.2119 15.5888 12.5574C15.5888 12.9028 15.3087 13.183 14.9632 13.183ZM14.9632 11.1394H14.6593C14.3139 11.1394 14.0337 10.8593 14.0337 10.5138C14.0337 10.1684 14.3139 9.88823 14.6593 9.88823H14.9632C15.3087 9.88823 15.5888 10.1684 15.5888 10.5138C15.5888 10.8593 15.3087 11.1394 14.9632 11.1394ZM14.9632 9.09585H14.6593C14.3139 9.09585 14.0337 8.81571 14.0337 8.47026C14.0337 8.1248 14.3139 7.84466 14.6593 7.84466H14.9632C15.3087 7.84466 15.5888 8.1248 15.5888 8.47026C15.5888 8.81571 15.3087 9.09585 14.9632 9.09585ZM17.0902 13.183H16.7863C16.4409 13.183 16.1607 12.9028 16.1607 12.5574C16.1607 12.2119 16.4409 11.9318 16.7863 11.9318H17.0902C17.4357 11.9318 17.7158 12.2119 17.7158 12.5574C17.7158 12.9028 17.4357 13.183 17.0902 13.183ZM17.0902 11.1394H16.7863C16.4409 11.1394 16.1607 10.8593 16.1607 10.5138C16.1607 10.1684 16.4409 9.88823 16.7863 9.88823H17.0902C17.4357 9.88823 17.7158 10.1684 17.7158 10.5138C17.7158 10.8593 17.4357 11.1394 17.0902 11.1394ZM17.0902 9.09585H16.7863C16.4409 9.09585 16.1607 8.81571 16.1607 8.47026C16.1607 8.1248 16.4409 7.84466 16.7863 7.84466H17.0902C17.4357 7.84466 17.7158 8.1248 17.7158 8.47026C17.7158 8.81571 17.4357 9.09585 17.0902 9.09585Z" fill="#5679B6"/>
</g>
<defs>
<clipPath id="clip0_35_653">
<rect width="22" height="22" fill="white" transform="translate(0.5 0.0664062)"/>
</clipPath>
</defs>
</svg>
