<svg width="23" height="18" viewBox="0 0 23 18" fill="none" xmlns="http://www.w3.org/2000/svg">
<path d="M22.5 3.73307V2.81641C22.5 2.08706 22.2103 1.38759 21.6945 0.871863C21.1788 0.356138 20.4793 0.0664063 19.75 0.0664062C19.0207 0.0664063 18.3212 0.356138 17.8055 0.871863C17.2897 1.38759 17 2.08706 17 2.81641V5.56641H12.4167V2.81641C12.4167 2.57329 12.5132 2.34013 12.6852 2.16823C12.8571 1.99632 13.0902 1.89974 13.3333 1.89974C13.5764 1.89974 13.8096 1.99632 13.9815 2.16823C14.1534 2.34013 14.25 2.57329 14.25 2.81641V3.73307H16.0833V2.81641C16.0833 2.08706 15.7936 1.38759 15.2779 0.871863C14.7622 0.356138 14.0627 0.0664063 13.3333 0.0664063C12.604 0.0664063 11.9045 0.356138 11.3888 0.871863C10.8731 1.38759 10.5833 2.08706 10.5833 2.81641V13.0372C10.163 12.9395 9.73223 12.8933 9.30069 12.8997C7.10069 12.8997 7.10069 13.8164 4.90069 13.8164C2.70069 13.8164 2.7 12.8997 0.5 12.8997V16.5664C2.7 16.5664 2.7 17.4831 4.9 17.4831C7.1 17.4831 7.1 16.5664 9.3 16.5664C11.5 16.5664 11.5 17.4831 13.7 17.4831C15.9 17.4831 15.9 16.5664 18.1 16.5664C20.3 16.5664 20.3 17.4831 22.5 17.4831V13.8164C20.5763 13.8164 20.3344 13.1155 18.8333 12.9395V2.81641C18.8333 2.57329 18.9299 2.34013 19.1018 2.16823C19.2737 1.99632 19.5069 1.89974 19.75 1.89974C19.9931 1.89974 20.2263 1.99632 20.3982 2.16823C20.5701 2.34013 20.6667 2.57329 20.6667 2.81641V3.73307H22.5ZM17 7.39974V9.23307H12.4167V7.39974H17ZM12.4167 13.6789V11.0664H17V12.9975C15.8113 13.2334 15.4554 13.8164 13.7 13.8164C13.2682 13.8229 12.8373 13.7767 12.4167 13.6789Z" fill="#567AB8"/>
</svg>
