<svg width="69" height="68" viewBox="0 0 69 68" fill="none" xmlns="http://www.w3.org/2000/svg">
<path d="M67.4305 55.0925C66.9002 54.8748 66.3853 54.6048 65.8957 54.2785C63.1314 52.434 59.7157 51.7882 56.5776 52.3102V47.7405H58.567C59.6666 47.7405 60.5564 46.8507 60.5564 45.7511V37.7935C60.5564 36.6939 59.6666 35.8041 58.567 35.8041H56.5776C56.5776 28.7079 56.5776 23.877 56.5776 16.7799L61.559 19.6266C62.4931 20.1637 63.7204 19.8542 64.273 18.8864C64.8189 17.9326 64.4867 16.7164 63.5329 16.1724L35.6811 0.256901C35.071 -0.0927951 34.3173 -0.0927951 33.7072 0.256901L5.85549 16.1721C4.90163 16.7161 4.56947 17.9322 5.11533 18.8861C5.65933 19.8362 6.87549 20.1723 7.82935 19.6263L12.8108 16.7796C12.8108 23.8775 12.8108 28.7067 12.8108 35.8038H10.8214C9.7218 35.8038 8.83196 36.6937 8.83196 37.7932V45.7508C8.83196 46.8504 9.7218 47.7402 10.8214 47.7402H12.8108V52.2657C9.73336 51.8041 6.3963 52.4729 3.69078 54.2782C3.1566 54.6338 2.58737 54.929 1.99861 55.1564C0.949522 55.5625 0.426904 56.7396 0.83092 57.7889C1.23706 58.8379 2.42002 59.3606 3.4634 58.9565C4.33186 58.6205 5.16726 58.1872 5.94819 57.6665C8.8896 55.7082 12.8185 55.7082 15.7599 57.6665C20.069 60.5419 25.6447 60.5419 29.9538 57.6665C32.8952 55.7082 36.6914 55.7082 39.6328 57.6665C43.9418 60.5418 49.5175 60.5419 53.8268 57.6665C56.7682 55.7082 60.6971 55.7064 63.6385 57.6685C64.3572 58.1445 65.1092 58.5428 65.8843 58.8613C66.9159 59.281 68.1128 58.7895 68.542 57.7501C68.9673 56.7108 68.4719 55.5199 67.4305 55.0925ZM40.6624 27.9789V24.0001H52.5989V27.9789H40.6624ZM48.62 39.9154V43.8943H44.6412V39.9154H48.62ZM44.6412 10.0914L48.0926 12.0636H44.6412V10.0914ZM36.6836 5.54391L40.6624 7.81766V12.0636H36.6836V5.54391ZM40.6624 39.9154V43.8943H36.6836V39.9154H38.673H40.6624ZM36.6836 24.0001V35.9366H32.7048V24.0001H36.6836ZM28.7258 7.81766L32.7046 5.54391V12.0636H28.7258V7.81766ZM32.7048 39.9154V43.8943H28.726V39.9154H30.7154H32.7048ZM24.747 10.0914V12.0636H21.2956L24.747 10.0914ZM16.7894 24.0001H28.726V27.9789H16.7894V24.0001ZM24.747 39.9154V43.8943H20.7682V39.9154H24.747ZM12.8106 43.8943V39.9154H14.8H16.7894V43.8943H12.8106ZM51.5691 54.411C48.6277 56.3694 44.8315 56.3694 41.8901 54.411C37.581 51.5356 32.0053 51.5356 27.6961 54.411C24.7547 56.3694 20.9586 56.3694 18.0172 54.411C17.6212 54.1469 17.2046 53.933 16.7893 53.7175V47.8731H52.5987V53.8293H52.5988C52.2531 54.017 51.9011 54.1896 51.5691 54.411ZM56.5777 43.8943H52.5988V39.9154H54.5882H56.5776V43.8943H56.5777Z" fill="#2E2E2E"/>
<path d="M67.4305 63.1825C66.9002 62.9648 66.3853 62.6948 65.8957 62.3685C61.5866 59.4931 55.8782 59.4931 51.5692 62.3685C48.6278 64.3268 44.8316 64.3268 41.8902 62.3685C37.5811 59.4931 32.0054 59.4931 27.6963 62.3685C24.7549 64.3268 20.9587 64.3268 18.0173 62.3685C13.7082 59.4931 7.99975 59.4931 3.69078 62.3685C3.1566 62.724 2.58737 63.0192 1.99861 63.2466C0.949522 63.6528 0.426904 64.8299 0.83092 65.8791C1.23706 66.9282 2.42002 67.4489 3.4634 67.0468C4.33186 66.7108 5.16726 66.2774 5.94819 65.7568C8.8896 63.7985 12.8185 63.7985 15.7599 65.7568C20.069 68.6322 25.6447 68.6322 29.9538 65.7568C32.8952 63.7985 36.6914 63.7985 39.6328 65.7568C43.9418 68.632 49.5175 68.6322 53.8268 65.7568C56.7682 63.7985 60.6971 63.7966 63.6385 65.7588C64.3572 66.2348 65.1092 66.6331 65.8843 66.9516C66.9159 67.3674 68.1128 66.8797 68.542 65.8403C68.9673 64.8008 68.4719 63.6097 67.4305 63.1825Z" fill="#2E2E2E"/>
</svg>
