<svg width="24" height="20" viewBox="0 0 24 20" fill="none" xmlns="http://www.w3.org/2000/svg">
<path d="M14.1109 17.2855C14.3002 16.0443 13.507 14.875 12.3391 14.6738C11.1713 14.4726 10.0711 15.3157 9.88179 16.5568C9.69247 17.798 10.4857 18.9673 11.6536 19.1685C12.8214 19.3697 13.9216 18.5266 14.1109 17.2855Z" fill="#567AB8"/>
<path d="M22.8605 5.38103C19.7731 2.09974 15.8026 0.599609 12 0.599609C8.19736 0.599609 4.2269 2.09974 1.13946 5.38103C0.286218 6.28891 0.290126 7.69475 1.13151 8.59275C2.18224 9.72188 3.55792 9.27242 4.17394 8.59581C6.26523 6.37614 9.04432 5.15372 12 5.15372C14.9557 5.15372 17.7348 6.37614 19.8261 8.59581C20.4421 9.27242 21.8178 9.72188 22.8685 8.59275C23.7099 7.69475 23.7138 6.28891 22.8605 5.38103Z" fill="#567AB8"/>
<path d="M12 7.62256C9.86979 7.62256 7.58403 8.46427 5.81281 10.3463C4.94865 11.2647 4.96585 12.677 5.82143 13.5767C6.67095 14.4734 7.99269 14.4697 8.84198 13.567C9.68552 12.6706 10.807 12.1769 12 12.1769C13.1929 12.1769 14.3145 12.6706 15.158 13.567C16.0073 14.4697 17.3291 14.4734 18.1785 13.5767C19.0341 12.677 19.0513 11.2647 18.1872 10.3463C16.416 8.46432 14.1303 7.62256 12 7.62256Z" fill="#567AB8"/>
</svg>
