<svg width="31" height="31" viewBox="0 0 31 31" fill="none" xmlns="http://www.w3.org/2000/svg">
<path d="M29.3102 0.6387L20.4622 2.39658C20.0519 2.47897 19.7558 2.83951 19.7558 3.25835V9.63143C19.4795 9.53293 19.1864 9.46953 18.8768 9.46953C17.4228 9.46953 16.24 10.6523 16.24 12.1063C16.24 13.5604 17.4228 14.7432 18.8768 14.7432C20.3308 14.7432 21.5136 13.5604 21.5136 12.1063V5.73673L28.6037 4.33042V7.87355C28.3275 7.77505 28.0344 7.71165 27.7248 7.71165C26.2708 7.71165 25.088 8.89447 25.088 10.3485C25.088 11.8025 26.2708 12.9853 27.7248 12.9853C29.1788 12.9853 30.3616 11.8025 30.3616 10.3485V1.50047C30.3616 0.96549 29.8804 0.532465 29.3102 0.6387Z" fill="#2E2E2E"/>
<path d="M11.8452 20.0169C12.3307 20.0169 12.7242 19.6234 12.7242 19.138C12.7242 18.6525 12.3307 18.259 11.8452 18.259C11.3598 18.259 10.9663 18.6525 10.9663 19.138C10.9663 19.6234 11.3598 20.0169 11.8452 20.0169Z" fill="#2E2E2E"/>
<path d="M18.8767 16.5008C16.4536 16.5008 14.482 14.5292 14.482 12.1061C14.482 10.6672 15.1868 9.39911 16.259 8.59705C14.9008 8.02767 13.4102 7.71143 11.8452 7.71143C5.53467 7.71143 0.360352 12.8272 0.360352 19.1376C0.360352 25.4481 5.53467 30.6225 11.8452 30.6225C18.1557 30.6225 23.2714 25.4481 23.2714 19.1376C23.2714 17.5727 22.9552 16.082 22.3858 14.7238C21.5837 15.796 20.3156 16.5008 18.8767 16.5008ZM5.69259 19.1376C5.69259 19.6235 5.29947 20.0166 4.81365 20.0166C4.32783 20.0166 3.93471 19.6235 3.93471 19.1376C3.93471 14.7756 7.48311 11.2272 11.8452 11.2272C12.331 11.2272 12.7241 11.6203 12.7241 12.1061C12.7241 12.5919 12.331 12.9851 11.8452 12.9851C8.45299 12.9851 5.69259 15.7455 5.69259 19.1376ZM9.20835 19.1376C9.20835 17.6836 10.3912 16.5008 11.8452 16.5008C13.2992 16.5008 14.482 17.6836 14.482 19.1376C14.482 20.5917 13.2992 21.7745 11.8452 21.7745C10.3912 21.7745 9.20835 20.5917 9.20835 19.1376ZM11.8452 27.0481C11.3594 27.0481 10.9662 26.655 10.9662 26.1692C10.9662 25.6834 11.3594 25.2902 11.8452 25.2902C15.2374 25.2902 17.9978 22.5298 17.9978 19.1376C17.9978 18.6518 18.3909 18.2587 18.8767 18.2587C19.3625 18.2587 19.7556 18.6518 19.7556 19.1376C19.7556 23.4998 16.2072 27.0481 11.8452 27.0481Z" fill="#2E2E2E"/>
</svg>
