<svg width="19" height="22" viewBox="0 0 19 22" fill="none" xmlns="http://www.w3.org/2000/svg">
<path d="M18.1415 3.09405L15.9716 3.82021L8.87904 1.74342C7.91765 0.993606 6.73402 0.588226 5.5166 0.591821C4.16998 0.590982 2.86963 1.08495 1.86089 1.98053C0.852153 2.8761 0.204795 4.11135 0.0409661 5.45318C-0.122863 6.79502 0.208166 8.15066 0.971592 9.26429C1.73502 10.3779 2.87805 11.1726 4.185 11.4982V16.8245C4.186 17.1622 4.29859 17.4902 4.50514 17.7568C4.71169 18.0235 5.00051 18.2138 5.32637 18.298V21.0258C5.32637 21.1271 5.36645 21.2243 5.4378 21.2959C5.50915 21.3676 5.60592 21.4078 5.70683 21.4078C5.80773 21.4078 5.9045 21.3676 5.97585 21.2959C6.0472 21.2243 6.08728 21.1271 6.08728 21.0258V18.298C6.41314 18.2138 6.70197 18.0235 6.90851 17.7568C7.11506 17.4902 7.22765 17.1622 7.22866 16.8245V11.3943C7.82466 11.1985 8.38286 10.9016 8.87904 10.5166L15.9716 8.43982L18.1415 9.16598C18.1987 9.18507 18.2596 9.19027 18.3192 9.18112C18.3788 9.17198 18.4354 9.14876 18.4843 9.11338C18.5332 9.07801 18.573 9.03148 18.6005 8.97762C18.628 8.92377 18.6423 8.86414 18.6424 8.80363V3.4564C18.6424 3.39588 18.6281 3.33621 18.6006 3.28233C18.5731 3.22846 18.5333 3.1819 18.4844 3.14651C18.4354 3.11113 18.3789 3.08791 18.3192 3.07879C18.2596 3.06967 18.1987 3.0749 18.1415 3.09405ZM5.5166 8.61265C5.02749 8.61265 4.54937 8.46705 4.14269 8.19425C3.73601 7.92146 3.41904 7.53372 3.23187 7.08008C3.0447 6.62644 2.99572 6.12726 3.09114 5.64568C3.18656 5.16409 3.42209 4.72173 3.76794 4.37452C4.11379 4.02732 4.55444 3.79087 5.03415 3.69508C5.51385 3.59929 6.01109 3.64845 6.46296 3.83636C6.91484 4.02426 7.30107 4.34247 7.5728 4.75073C7.84453 5.159 7.98957 5.639 7.98957 6.13001C7.98881 6.78822 7.72803 7.41925 7.26442 7.88467C6.80081 8.35009 6.17224 8.6119 5.5166 8.61265Z" fill="#567AB8"/>
</svg>
