<svg width="49" height="47" viewBox="0 0 49 47" fill="none" xmlns="http://www.w3.org/2000/svg">
<path d="M24.2789 28.1971C29.5005 25.12 35.3578 23.0616 41.5594 22.1051C37.8007 20.0906 31.9809 17.936 24.2789 17.936C16.795 17.936 11.039 19.9434 7.00854 22.1067C13.2064 23.0638 19.0601 25.1217 24.2789 28.1971Z" fill="#2E2E2E"/>
<path d="M48.2792 24.3057C40.5498 24.524 33.2143 26.546 26.9893 29.9262C30.0589 32.0452 32.7671 34.4937 35.0549 37.2246C37.549 40.2019 39.4871 43.4485 40.8285 46.8869H46.8803C47.6529 46.8869 48.2792 46.2606 48.2792 45.488V24.3057Z" fill="#2E2E2E"/>
<path d="M0.279053 31.0528C4.99694 31.3207 9.45196 32.944 13.2387 35.789C16.9823 38.6015 19.8383 42.5129 21.3642 46.8869H37.8047C32.1464 33.8456 17.149 24.7822 0.279053 24.3057V31.0528Z" fill="#2E2E2E"/>
<path d="M18.3777 46.8871C15.4076 39.5258 8.30952 34.3952 0.279053 33.8574V45.4881C0.279053 46.2607 0.905399 46.887 1.67799 46.887L18.3777 46.8871Z" fill="#2E2E2E"/>
<path d="M44.0558 20.2975C44.2862 20.4329 44.5092 20.5682 44.7276 20.7032V16.1928C46.5674 15.6003 47.9025 13.8727 47.9025 11.8385V5.48884C47.9025 2.96686 45.8507 0.915039 43.3287 0.915039C40.8067 0.915039 38.7549 2.96686 38.7549 5.48884V11.8386C38.7549 13.8728 40.0901 15.6004 41.9297 16.1929V19.1476C42.7058 19.5336 43.4154 19.9213 44.0558 20.2975Z" fill="#2E2E2E"/>
<path d="M22.8801 15.1626V12.6116C22.8801 11.839 23.5065 11.2127 24.2791 11.2127C25.0517 11.2127 25.678 11.839 25.678 12.6116V15.1626C27.9566 15.2357 30.0755 15.4827 32.0278 15.8506V10.529C32.2543 10.6448 32.5 10.7015 32.7442 10.7015C33.2248 10.7015 33.6995 10.4831 34.0101 10.0691C34.534 9.37066 34.3924 8.37982 33.694 7.85594L25.2276 1.50614C24.6655 1.08454 23.8926 1.08454 23.3305 1.50614L14.8641 7.85594C14.1657 8.37982 14.0241 9.37066 14.5479 10.0691C15.0163 10.6937 15.8578 10.8713 16.5302 10.5275V15.8506C18.4827 15.4828 20.6015 15.2357 22.8801 15.1626Z" fill="#2E2E2E"/>
<path d="M6.62884 19.1475V16.1928C8.4686 15.6003 9.80369 13.8727 9.80369 11.8385V5.48884C9.80369 2.96686 7.75187 0.915039 5.2299 0.915039C2.70792 0.915039 0.656006 2.96676 0.656006 5.48884V11.8386C0.656006 13.8728 1.9912 15.6004 3.83086 16.1929V20.7033C4.0493 20.5683 4.27233 20.4329 4.50268 20.2976C5.14308 19.9213 5.85268 19.5336 6.62884 19.1475Z" fill="#2E2E2E"/>
</svg>
