<svg width="23" height="23" viewBox="0 0 23 23" fill="none" xmlns="http://www.w3.org/2000/svg">
<g clip-path="url(#clip0_35_661)">
<path d="M19.8102 9.46387C19.7414 9.44668 19.6855 9.39941 19.6512 9.33926C18.5168 7.0791 15.4488 7.0834 14.3145 9.34355C14.2844 9.40371 14.2242 9.45098 14.1555 9.46816C13.2832 9.68301 12.6344 10.5553 12.5441 11.5865H21.4215C21.3312 10.551 20.6824 9.67871 19.8102 9.46387ZM14.3832 10.6197C14.0523 10.6111 14.0523 10.117 14.3832 10.1127C14.7184 10.117 14.7184 10.6111 14.3832 10.6197ZM15.7453 9.52832C15.5305 9.78184 15.1438 9.45957 15.35 9.20605C15.5648 8.94824 15.9559 9.27481 15.7453 9.52832ZM17.1504 10.4307C16.9355 10.6842 16.5488 10.3619 16.7551 10.1084C16.9699 9.85059 17.3609 10.1729 17.1504 10.4307ZM17.3953 8.75488C17.1848 9.0084 16.7938 8.69043 17 8.43262C17.2191 8.1791 17.6016 8.49277 17.3953 8.75488ZM18.4352 9.79902C18.1 9.79473 18.1 9.29629 18.4352 9.29199C18.7703 9.30059 18.766 9.79473 18.4352 9.79902ZM19.9562 10.6197C19.6211 10.6154 19.6211 10.117 19.9562 10.1127C20.2871 10.117 20.2871 10.6111 19.9562 10.6197ZM22.457 12.3686C22.4484 12.476 22.4055 12.5576 22.3582 12.6092C22.0832 12.6436 21.9328 12.824 21.8168 12.9572C21.8168 13.0045 21.675 13.1076 21.6363 13.1248C21.473 13.1936 21.3355 13.0561 21.2453 12.9357C21.0992 12.7553 20.9102 12.6178 20.6695 12.6006C20.3344 12.5662 20.0938 12.8025 19.9047 13.0432C19.6297 13.3053 19.4664 12.9658 19.2816 12.7939C18.8863 12.4244 18.375 12.6264 18.0914 13.0174C18.0312 13.0861 17.9539 13.1506 17.8594 13.1463C17.7348 13.1463 17.6488 13.0303 17.5715 12.9357C17.2578 12.4803 16.6219 12.4975 16.3125 12.9443C16.2094 13.0689 16.0633 13.215 15.8957 13.099C15.7625 12.9873 15.6766 12.8283 15.5305 12.7295C15.1609 12.4373 14.6539 12.6607 14.4691 12.9529C14.3531 13.0904 14.3016 13.142 14.1941 13.142C14.091 13.142 14.0395 13.0947 13.9234 12.9572C13.7945 12.8025 13.6184 12.5963 13.2746 12.5963C12.9352 12.5963 12.759 12.8068 12.6301 12.9572C12.5398 13.0689 12.441 13.1764 12.2992 13.1334C12.0371 13.0088 11.9469 12.6393 11.543 12.6049C11.4312 12.5018 11.4098 12.1924 11.5387 12.0678H22.3582C22.427 12.1451 22.4613 12.2525 22.457 12.3686ZM2.72578 20.9924H19.4578V21.1814C19.4578 21.3404 19.3246 21.4693 19.1699 21.4693H3.01797C2.85898 21.4693 2.72578 21.3404 2.72578 21.1814V20.9924ZM19.2945 18.801H21.5676C21.5676 19.742 20.7984 20.5111 19.8574 20.5111H2.25312C1.31211 20.5068 0.542969 19.742 0.542969 18.801C5.63047 18.7967 14.2113 18.8053 19.2945 18.801ZM4.51328 16.949C4.66797 17.4088 4.80547 17.8643 5.0375 18.2982C4.68945 18.3111 4.35 18.3412 4.08359 18.2682C3.55508 18.0619 4.22539 16.9232 4.43594 16.6225C4.46172 16.7299 4.4832 16.8416 4.51328 16.949ZM5.29531 17.7139C5.04609 17.1338 4.83125 16.4936 4.82695 15.8619C5.06758 15.2604 5.73359 14.9037 6.21914 14.5041C6.31367 15.7932 6.74336 17.0951 7.56836 18.1006C6.80781 18.1564 6.24492 18.208 5.57461 18.2553C5.52305 18.2596 5.32539 17.7783 5.29531 17.7139ZM15.0363 17.7439C14.3059 17.9416 13.5625 17.8213 12.802 17.8686C12.8449 16.9232 13.1758 15.9736 13.8031 15.2561C14.2156 15.617 15.6164 17.2369 15.0363 17.7439ZM12.2777 13.9756C12.5098 14.0916 12.7332 14.2205 12.9566 14.3537C13.0469 14.4096 13.5496 14.6717 13.5238 14.8264C12.7848 15.6729 12.3551 16.717 12.3164 17.8729C11.818 17.8857 11.1949 17.8986 10.4559 17.9287C10.3441 16.8717 10.6406 14.8564 11.934 13.808C12.05 13.8639 12.1617 13.9154 12.2777 13.9756ZM11.5859 13.46C11.4699 13.417 10.9328 14.1861 10.8641 14.2893C10.1078 15.3635 9.93594 16.6697 9.97031 17.9502C9.54492 17.976 9.10234 17.9889 8.67266 18.0232C8.49219 18.0404 8.25586 18.1049 8.10117 17.976C7.38359 17.2799 7.03555 16.2572 6.80781 15.3033C6.70039 14.8178 6.51562 14.083 7.03125 13.765C8.43203 13.0088 10.0906 12.8842 11.5859 13.46ZM19.2902 18.3154C19.6125 18.3111 19.9047 18.0705 20.025 17.7182L21.3828 13.6189C21.2195 13.576 21.0734 13.4771 20.9574 13.3568C20.8457 13.2107 20.6695 12.9744 20.4719 13.1463C20.343 13.2494 20.2613 13.3998 20.1281 13.4986C19.8316 13.7264 19.3977 13.6619 19.157 13.3826C18.9293 13.1119 18.7445 12.9314 18.4867 13.3053C18.259 13.6404 17.7262 13.7521 17.4297 13.4857C17.2922 13.3826 17.1934 13.2193 17.0816 13.1291C16.9184 13.0346 16.8238 13.0947 16.6777 13.2752C16.4629 13.6146 15.9172 13.7908 15.5605 13.4557C15.4016 13.3354 15.3242 13.0947 15.1223 13.0904C15.0148 13.0904 14.9633 13.1377 14.8473 13.2795C14.5164 13.7564 13.8891 13.7607 13.5582 13.2795C13.1672 12.751 13.0168 13.4814 12.6086 13.6018C13.1629 13.8939 13.816 14.1818 14.0438 14.8092C14.2758 15.0412 14.5035 15.2732 14.7055 15.5268L14.6023 14.8693C14.5551 14.5557 15.0277 14.4783 15.0836 14.792L15.3586 16.515C15.8141 17.3658 15.8355 18.3111 14.6281 18.3154H19.2902ZM18.8863 14.792C18.9379 14.4826 19.4148 14.5557 19.3676 14.8693L18.9121 17.7053C18.8563 18.0189 18.3879 17.9459 18.4352 17.6279L18.8863 14.792ZM17.2234 17.6666C17.2191 17.9846 16.7422 17.9846 16.7379 17.6666V14.2205C16.7379 13.9025 17.2234 13.9025 17.2234 14.2205V17.6666ZM1.05859 12.708C0.658984 10.4908 0.461328 8.20488 0.581641 5.95762H9.4332C9.5707 8.25645 9.34727 10.4908 8.96914 12.6436C8.21289 12.7295 7.48672 12.9615 6.79922 13.3354C6.53711 13.4771 6.44258 13.7607 6.21484 13.9111C5.57461 14.358 4.93008 14.8865 4.45312 15.5139C4.41016 15.5826 4.38008 15.6557 4.35859 15.733C4.34141 15.7975 4.36289 15.9135 4.31563 15.9607C3.82578 16.6225 3.24141 17.4561 3.46484 18.3154H2.90625C2.82031 18.3154 2.54102 17.5205 2.50234 17.4303C1.82773 15.9221 1.36367 14.3279 1.05859 12.708ZM2.13281 3.65449C1.52266 3.1002 1.52266 2.15488 2.13281 1.60059C2.31758 1.39863 2.46367 1.23965 2.46367 0.900195C2.46367 0.766992 2.57109 0.655273 2.70859 0.655273C2.84609 0.655273 2.95352 0.762695 2.95352 0.900195C2.95352 1.42441 2.7 1.70371 2.49375 1.92715C2.30898 2.1291 2.16289 2.28809 2.16289 2.62324C2.16289 2.9584 2.30898 3.11738 2.49375 3.32363C2.6957 3.55137 2.94922 3.82637 2.94922 4.35488C2.94922 4.67285 2.46367 4.67285 2.46367 4.35488C2.46367 4.01543 2.31758 3.85645 2.13281 3.65449ZM4.36719 3.65449C3.75703 3.1002 3.75703 2.15488 4.36719 1.60059C4.55195 1.39863 4.69805 1.23965 4.69805 0.900195C4.69805 0.766992 4.80547 0.655273 4.94297 0.655273C5.07617 0.655273 5.18789 0.762695 5.18789 0.900195C5.18789 1.42441 4.93438 1.70371 4.72813 1.92715C4.54336 2.1291 4.39727 2.28809 4.39727 2.62324C4.39727 2.9584 4.54336 3.11738 4.72813 3.32363C4.93438 3.54707 5.18789 3.82637 5.18789 4.35059C5.18789 4.66855 4.70234 4.66855 4.70234 4.35059C4.69805 4.01543 4.55195 3.85645 4.36719 3.65449ZM6.60156 3.65449C5.99141 3.1002 5.99141 2.15488 6.60156 1.60059C6.78633 1.39863 6.93242 1.23965 6.93242 0.900195C6.93242 0.766992 7.03984 0.655273 7.17734 0.655273C7.31055 0.655273 7.42227 0.762695 7.42227 0.900195C7.42227 1.42441 7.16875 1.70371 6.9625 1.92715C6.77773 2.1291 6.63164 2.28809 6.63164 2.62324C6.63164 2.9584 6.77773 3.11738 6.9625 3.32363C7.16875 3.54707 7.42227 3.82637 7.42227 4.35059C7.42227 4.66855 6.93672 4.66855 6.93672 4.35059C6.93242 4.01543 6.78633 3.85645 6.60156 3.65449Z" fill="#5679B6"/>
</g>
<defs>
<clipPath id="clip0_35_661">
<rect width="22" height="22" fill="white" transform="translate(0.5 0.0664062)"/>
</clipPath>
</defs>
</svg>
