<svg width="187" height="203" viewBox="0 0 187 203" fill="none" xmlns="http://www.w3.org/2000/svg">
<g clip-path="url(#clip0_329_1139)">
<path d="M176.251 22.8396C175.619 22.4664 174.986 22.0559 174.204 21.4961C174.056 21.3841 173.832 21.3468 173.646 21.4588C172.567 22.0185 171.413 22.5783 169.962 23.2128C169.701 23.3247 169.404 23.2128 169.292 22.9889C168.511 21.6827 167.878 20.4885 167.357 19.3689C167.283 19.2196 167.134 19.1076 166.985 19.0703C166.985 19.0703 166.91 19.0703 166.873 19.0703C165.98 19.0703 165.161 18.9957 164.417 18.921C165.273 18.6598 166.203 18.4359 167.32 18.212C167.543 18.1746 167.766 18.2493 167.915 18.4359C168.622 19.4062 169.329 20.4511 170.036 21.5707L170.111 21.6827H170.223C171.451 21.1602 172.641 20.7124 173.795 20.3765C174.018 20.3019 174.242 20.3765 174.391 20.5631C175.172 21.4214 175.768 22.1678 176.289 22.8769L176.251 22.8396Z" fill="#BD9473"/>
<path d="M171.488 14.5174C170.074 14.0695 168.585 13.5097 166.836 12.7634C166.464 12.6141 166.017 12.6514 165.682 12.95C163.822 14.5547 161.738 16.1594 159.133 18.0254C158.686 18.3613 158.053 18.2866 157.681 17.8761C155.56 15.5996 153.811 13.5471 152.248 11.6065C152.025 11.3452 151.727 11.1959 151.355 11.1959C151.28 11.1959 151.206 11.1959 151.131 11.1959C149.345 11.5691 147.745 11.8304 146.219 11.9796C147.782 11.084 149.531 10.2256 151.652 9.29265C152.062 9.10605 152.583 9.18069 152.918 9.47925C154.741 11.084 156.565 12.838 158.463 14.8159L158.612 15.0025L158.798 14.8532C160.993 13.3605 163.189 11.9796 165.31 10.7481C165.72 10.5242 166.241 10.5615 166.613 10.8227C168.548 12.2036 170.074 13.3978 171.413 14.5547L171.488 14.5174Z" fill="#BD9473"/>
<path opacity="0.47" d="M150.685 26.4224C149.903 26.6463 149.122 26.9075 148.303 27.2061C147.931 25.8626 147.559 24.5564 147.187 23.2129C148.377 24.2578 149.568 25.3401 150.685 26.4224Z" fill="#D7A556"/>
<path d="M85.3354 79.9009C83.8096 79.6024 82.2093 79.2665 80.5347 79.0053C72.1613 77.5871 62.2994 76.6542 51.2466 77.0647C29.2526 77.8484 11.7616 83.5582 0.70874 88.1859C25.866 82.5133 48.6415 81.2818 68.7375 82.6253C70.6727 82.7372 72.5707 82.9238 74.4686 83.0731C74.6919 82.9985 74.878 82.9238 75.1013 82.8865C77.297 82.1401 79.5299 81.4684 81.7628 80.8713C82.9536 80.5354 84.1073 80.2368 85.2982 79.9383L85.3354 79.9009ZM75.3246 82.8492H75.1385C75.1385 82.8492 74.9897 82.8865 74.9524 82.9238L75.3618 82.8492H75.3246Z" fill="#839ED0"/>
<path d="M56.1961 91.694C56.1961 91.694 56.1217 91.694 56.0845 91.7687H56.2333V91.694H56.1961ZM75.1013 82.812C75.1013 82.812 74.9524 82.8493 74.9152 82.8866L75.3246 82.812H75.1385H75.1013Z" fill="#839ED0"/>
<path d="M182.503 85.6482C151.764 73.6687 117.303 71.8027 85.3354 79.8637C84.1445 80.1623 82.9537 80.4608 81.8 80.7967C79.5671 81.3938 77.3342 82.0656 75.1385 82.8119H75.3246L74.9153 82.8866C74.9153 82.8866 75.0641 82.8493 75.1013 82.8119C74.878 82.8866 74.692 82.9239 74.4687 82.9985C67.5467 85.2004 60.3642 88.3352 53.4423 91.582C50.4651 92.9628 47.5251 94.381 44.6595 95.7618L56.345 92.9628C67.5839 90.3878 93.6343 83.5583 104.799 82.2895C132.077 78.4456 160.063 80.1996 186.709 87.3649C185.332 86.7678 183.918 86.208 182.503 85.6482ZM56.0845 91.7686C56.0845 91.7686 56.1589 91.7313 56.1962 91.694L56.0473 91.7686H56.0845Z" fill="#839ED0"/>
<g opacity="0.53">
<path d="M72.1613 81.4683C72.1613 81.4683 72.0125 81.5056 71.9753 81.5429L72.3846 81.4683H72.1985H72.1613ZM53.2562 90.3503C53.2562 90.3503 53.1817 90.3876 53.1445 90.4249H53.2934V90.3503H53.2562Z" fill="#5679B6"/>
<path d="M85.3354 79.901C83.8096 79.6025 82.2094 79.2666 80.5347 79.0054C79.9765 79.1546 79.4182 79.3039 78.86 79.4532C76.6271 80.0503 74.3942 80.7221 72.1985 81.4685H72.3846L71.9753 81.5431C71.9753 81.5431 72.1241 81.5058 72.1613 81.4685C71.0449 81.8043 69.9284 82.1775 68.7748 82.588C70.71 82.7 72.6079 82.8866 74.5059 83.0359C74.7292 82.9612 74.9152 82.8866 75.1385 82.8493C77.3342 82.1029 79.5671 81.4311 81.8 80.834C82.9909 80.4981 84.1445 80.1996 85.3354 79.901ZM75.3246 82.8493H75.1385C75.1385 82.8493 74.9897 82.8866 74.9525 82.9239L75.3618 82.8493H75.3246Z" fill="#5679B6"/>
</g>
<path d="M172.79 90.7233C142.795 88.0363 112.651 88.8947 82.8048 93.0371C95.3834 89.0439 108.818 87.2153 121.955 86.3569C138.962 85.4239 156.267 86.5435 172.79 90.7233Z" fill="#839ED0"/>
<path d="M84.7772 128.901C85.0005 131.402 84.5539 134.163 83.4375 137.149C82.2838 140.396 80.6464 142.933 78.5996 144.762C71.9009 150.733 59.3222 154.39 40.9009 155.696C38.5563 155.883 36.2862 155.958 34.165 155.958C18.8697 155.958 10.9057 151.741 10.3475 143.269C10.0497 139.089 12.2454 134.686 16.9717 130.095C20.5071 126.699 24.303 124.199 28.4339 122.631C33.0857 120.84 39.3751 119.683 47.3018 119.123C50.0557 118.9 51.4327 119.123 51.4699 119.833C51.4699 120.094 51.321 120.43 50.9489 120.84C50.5767 121.251 50.279 121.437 50.093 121.475C40.5659 123.938 32.7508 126.475 26.6848 129.05C20.135 131.849 16.9345 134.2 17.0833 136.066C17.2322 138.007 18.8324 139.948 21.9585 141.776C26.1638 144.239 31.8949 145.471 39.1518 145.471C41.0869 145.471 43.0593 145.396 45.1062 145.247C56.4195 144.239 65.165 142.635 71.3426 140.433C76.1062 138.753 78.6368 137.074 78.8973 135.432C78.8973 135.32 78.3391 134.462 77.2598 132.782C76.0317 130.954 75.3246 128.976 75.1386 126.811C75.0269 125.281 75.4363 123.714 76.3667 122.184C77.1854 120.803 77.9297 120.094 78.6368 120.056C79.4555 119.982 80.6092 120.915 82.135 122.855C83.8096 124.983 84.7028 126.998 84.8144 128.864L84.7772 128.901ZM58.2802 167.377C58.2802 168.908 57.8336 170.587 56.9777 172.416C55.9357 174.58 54.7448 175.662 53.3306 175.662C51.656 175.662 50.279 175.14 49.237 174.058C48.4927 173.237 48.1206 172.49 48.1206 171.856C48.1206 171.035 48.6788 169.579 49.758 167.527C51.0233 165.213 52.177 164.093 53.2562 164.093C54.261 164.093 55.3402 164.467 56.5311 165.25C57.722 166.034 58.3174 166.743 58.3174 167.377H58.2802Z" fill="#5679B6"/>
<path d="M107.367 145.434C108.334 145.434 108.818 146.255 108.818 147.897C108.818 149.539 108.409 151.069 107.627 152.599C106.771 154.316 105.766 155.174 104.65 155.174C101.673 155.174 99.7375 154.614 98.8444 153.457C98.0629 152.45 97.5046 150.173 97.2069 146.553C96.2765 137.858 95.2345 126.662 94.0809 112.966C93.9692 110.95 94.4902 108.711 95.5695 106.286C96.6487 103.86 97.6535 102.666 98.5094 102.666C99.5887 102.666 100.482 106.211 101.114 113.264C101.747 120.318 102.603 129.536 103.645 140.881C103.831 142.672 104.054 143.829 104.427 144.351C104.91 145.06 105.915 145.434 107.404 145.434H107.367Z" fill="#5679B6"/>
<path d="M139.074 135.283C139.074 136.738 138.404 138.492 137.064 140.657C135.724 142.784 134.087 144.687 132.114 146.33C128.765 149.166 124.485 151.405 119.313 152.972C114.475 154.465 109.599 155.174 104.687 155.174C103.682 155.174 103.198 154.316 103.198 152.637C103.198 150.957 103.608 149.427 104.389 147.897C105.283 146.18 106.287 145.322 107.367 145.322C110.53 145.322 114.177 144.911 118.308 144.128C123.108 143.157 126.309 142.038 127.909 140.732C128.356 140.358 128.579 140.023 128.579 139.761C128.579 139.388 128.207 139.127 127.463 139.052C124.932 138.791 122.401 138.492 119.871 138.231C117.898 137.933 116.894 137.074 116.894 135.656C116.894 133.641 117.973 131.29 120.168 128.64L127.239 129.61C129.621 129.946 132.003 130.282 134.385 130.655C137.511 131.364 139.074 132.932 139.074 135.283Z" fill="#5679B6"/>
<path d="M180.531 114.907C180.531 119.161 178.819 122.93 175.358 126.177C172.53 128.864 169.404 130.208 166.017 130.208C164.529 130.208 163.673 129.797 163.412 128.901C162.78 129.387 161.291 129.984 158.909 130.693C156.379 131.402 154.332 131.812 152.732 131.887C151.057 131.887 149.605 131.476 148.377 130.581C147.149 129.685 146.442 128.64 146.256 127.483C145.847 125.244 144.358 124.05 141.79 123.863C139.781 123.751 136.878 124.722 133.119 126.7C128.467 129.163 125.006 132.26 122.736 135.955L120.28 128.603C123.964 123.789 128.43 119.982 133.64 117.183C138.106 114.795 142.125 113.563 145.698 113.563C148.601 113.563 150.35 115.093 150.945 118.191C151.206 119.683 151.615 120.691 152.173 121.214C152.88 121.885 154.183 122.184 156.081 122.147C160.137 121.997 163.412 120.542 165.943 117.78C166.65 116.511 167.655 115.205 168.92 113.899C169.553 113.899 169.888 114.347 169.888 115.28C169.888 116.063 169.702 116.996 169.292 118.116C168.883 119.198 168.697 119.833 168.697 119.982C168.697 120.206 168.808 120.355 169.069 120.355C171.413 120.243 173.386 119.572 174.912 118.303C175.879 117.519 176.81 116.325 177.74 114.757C178.447 113.526 178.968 112.891 179.266 112.854C180.122 112.854 180.568 113.526 180.568 114.907H180.531Z" fill="#5679B6"/>
<path d="M33.0112 200.405L34.2021 199.062C35.3185 200.219 36.8816 201.002 38.4818 201.002C40.5286 201.002 41.7195 199.995 41.7195 198.465C41.7195 196.86 40.603 196.375 39.1145 195.74L36.8816 194.77C35.4302 194.136 33.7183 193.053 33.7183 190.74C33.7183 188.426 35.8023 186.597 38.5934 186.597C40.417 186.597 42.0916 187.381 43.1709 188.538L42.1289 189.807C41.1613 188.911 40.0448 188.351 38.5934 188.351C36.8443 188.351 35.6907 189.247 35.6907 190.628C35.6907 192.12 37.0304 192.68 38.2585 193.203L40.4914 194.173C42.2777 194.957 43.6919 196.039 43.6919 198.353C43.6919 200.816 41.6451 202.794 38.4074 202.794C36.2117 202.794 34.3137 201.898 32.974 200.48L33.0112 200.405Z" fill="#5679B6"/>
<path d="M61.8155 186.858H64.0484L69.2957 202.458H67.2117L64.495 193.762C63.9368 192.008 63.453 190.292 62.932 188.5H62.8203C62.3365 190.292 61.8527 192.008 61.2945 193.762L58.5406 202.458H56.531L61.7783 186.858H61.8155ZM59.3221 196.114H66.4674V197.681H59.3221V196.114Z" fill="#5679B6"/>
<path d="M83.2141 186.858H85.1865V193.389H92.4062V186.858H94.3786V202.458H92.4062V195.143H85.1865V202.458H83.2141V186.858Z" fill="#5679B6"/>
<path d="M113.693 186.858H115.926L121.173 202.458H119.089L116.373 193.762C115.814 192.008 115.331 190.292 114.81 188.5H114.698C114.214 190.292 113.73 192.008 113.172 193.762L110.418 202.458H108.409L113.656 186.858H113.693ZM111.2 196.114H118.345V197.681H111.2V196.114Z" fill="#5679B6"/>
<path d="M135.092 186.858H139.706C142.87 186.858 145.065 187.941 145.065 190.665C145.065 192.195 144.247 193.576 142.795 194.061V194.173C144.656 194.546 145.958 195.778 145.958 197.905C145.958 200.965 143.539 202.458 140.078 202.458H135.129V186.858H135.092ZM139.371 193.501C142.014 193.501 143.093 192.531 143.093 190.926C143.093 189.098 141.865 188.426 139.446 188.426H137.064V193.501H139.371ZM139.781 200.891C142.423 200.891 143.986 199.92 143.986 197.83C143.986 195.927 142.497 195.031 139.781 195.031H137.064V200.891H139.781Z" fill="#5679B6"/>
<path d="M137.808 0C135.501 27.3178 124.746 52.1726 108.148 71.9892C107.925 71.9892 107.702 72.0265 107.478 72.0638C100.072 73.0341 92.8156 74.4522 85.782 76.3182C85.0377 76.1689 84.2189 76.057 83.4374 75.945C63.7507 73.0714 44.3618 73.8178 25.9404 77.699C44.7339 56.8375 56.7171 29.7809 58.6523 0H137.808Z" fill="#BD9473"/>
<path d="M171.748 76.7285C163.561 74.4147 155.15 72.7727 146.554 71.8397C143.13 66.1298 140.934 59.6735 140.302 52.6948C139.706 59.263 137.659 65.458 134.608 70.9067H134.571C131.296 70.7574 127.984 70.7201 124.634 70.7947C120.838 70.8694 117.005 71.0933 113.135 71.4292C128.132 52.4336 137.883 29.2209 140.265 3.76904C141.046 12.2406 142.646 20.4508 144.991 28.3252C150.35 46.4251 159.579 62.883 171.711 76.6912L171.748 76.7285Z" fill="#BD9473"/>
<path d="M52.9213 16.1965C50.614 27.8775 46.6692 39.0733 41.273 49.4854C36.4351 58.778 30.4435 67.4734 23.3727 75.3478L21.8841 76.9898C19.8745 77.4377 17.9765 77.9228 16.1902 78.408C16.2646 77.2884 16.339 76.1688 16.4507 75.0492C18.9813 50.8289 32.267 29.2956 52.9213 16.1592V16.1965Z" fill="#F1C679"/>
<path d="M174.205 74.2659C162.221 60.5696 153.364 44.4476 148.303 27.2061C147.931 25.8626 147.559 24.5564 147.187 23.2129C148.377 24.2578 149.568 25.3401 150.685 26.4224C163.784 39.1856 172.12 56.0913 174.205 74.2659Z" fill="#F1C679"/>
<path opacity="0.5" d="M145.028 28.3628C140.376 30.9379 135.799 35.0803 132.04 42.059C126.942 51.5382 125.565 62.0249 124.634 70.8323C120.838 70.907 117.005 71.1309 113.135 71.4668C128.132 52.4712 137.883 29.2585 140.265 3.80664C141.046 12.2781 142.646 20.4884 144.991 28.3628H145.028Z" fill="#8A6D52"/>
<path opacity="0.47" d="M41.273 49.5227C36.4351 58.8152 30.4435 67.5106 23.3727 75.385L21.8841 77.0271C19.8745 77.4749 17.9765 77.9601 16.1902 78.4452C16.2646 77.3256 16.339 76.2061 16.4507 75.0865C20.321 67.5106 30.0341 57.6956 41.273 49.4854V49.5227Z" fill="#D7A556"/>
<path opacity="0.23" d="M97.9885 3.80673C93.5972 3.73209 81.7256 4.03064 70.8589 11.7558C68.291 13.5844 62.2994 17.9135 58.243 25.8998C56.9777 28.3629 56.1962 30.6021 55.7124 32.2068C57.201 26.7955 58.5779 20.6751 59.4711 13.9203C59.9549 10.3749 60.2898 7.0162 60.4759 3.80673C72.9801 3.80673 85.4471 3.80673 97.9513 3.80673H97.9885Z" fill="#DBB9A0"/>
</g>
<defs>
<clipPath id="clip0_329_1139">
<rect width="186" height="202.719" fill="white" transform="translate(0.70874)"/>
</clipPath>
</defs>
</svg>
