<svg width="133" height="78" viewBox="0 0 133 78" fill="none" xmlns="http://www.w3.org/2000/svg">
<path d="M57.9285 20.4916C58.1013 22.4281 57.7556 24.5669 56.8913 26.8791C55.9981 29.3937 54.7304 31.3591 53.1458 32.7753C47.9597 37.3997 38.2214 40.2322 23.9597 41.2438C22.1446 41.3883 20.3871 41.4461 18.7448 41.4461C6.90326 41.4461 0.737598 38.1801 0.305425 31.6192C0.0749328 28.3821 1.77481 24.9715 5.43388 21.4165C8.17097 18.7863 11.1097 16.8499 14.3078 15.6359C17.9093 14.2486 22.7784 13.3526 28.9153 12.9191C31.0473 12.7457 32.1133 12.9191 32.1422 13.4682C32.1422 13.6706 32.0269 13.9307 31.7388 14.2486C31.4507 14.5665 31.2202 14.711 31.0761 14.74C23.7004 16.6475 17.65 18.6129 12.9537 20.6072C7.88286 22.7749 5.40507 24.5958 5.52031 26.0409C5.63556 27.5439 6.87445 29.0468 9.29462 30.4631C12.5503 32.3707 16.9873 33.3245 22.6055 33.3245C24.1037 33.3245 25.6308 33.2666 27.2154 33.151C35.9741 32.3707 42.7448 31.1278 47.5275 29.4226C51.2154 28.122 53.1746 26.8213 53.3763 25.5496C53.3763 25.4629 52.9441 24.7981 52.1085 23.4975C51.1578 22.0813 50.6103 20.5494 50.4663 18.8731C50.3799 17.688 50.6968 16.4741 51.4171 15.2891C52.0509 14.2197 52.6272 13.6705 53.1746 13.6416C53.8084 13.5838 54.7016 14.3064 55.8829 15.8094C57.1794 17.4568 57.8709 19.0176 57.9573 20.4627L57.9285 20.4916ZM37.4147 50.2904C37.4147 51.4754 37.0689 52.776 36.4063 54.1923C35.5995 55.8686 34.6776 56.7068 33.5827 56.7068C32.2862 56.7068 31.2202 56.3022 30.4135 55.464C29.8372 54.8281 29.5491 54.2501 29.5491 53.7587C29.5491 53.1229 29.9813 51.9957 30.8168 50.406C31.7964 48.614 32.6896 47.747 33.5251 47.747C34.303 47.747 35.1386 48.036 36.0605 48.6429C36.9825 49.2499 37.4435 49.799 37.4435 50.2904H37.4147Z" fill="#5679B6"/>
<path d="M75.4169 33.2955C76.166 33.2955 76.5406 33.9313 76.5406 35.203C76.5406 36.4748 76.2237 37.6598 75.6186 38.8448C74.956 40.1743 74.1781 40.8391 73.3137 40.8391C71.0088 40.8391 69.5106 40.4055 68.8191 39.5096C68.2141 38.7292 67.7819 36.9661 67.5514 34.1625C66.8311 27.4282 66.0244 18.7574 65.1312 8.15002C65.0448 6.58927 65.4482 4.8551 66.2837 2.97642C67.1192 1.09774 67.8971 0.172852 68.5598 0.172852C69.3953 0.172852 70.0868 2.91862 70.5766 8.38125C71.0664 13.8439 71.7291 20.9829 72.5358 29.7693C72.6798 31.1567 72.8527 32.0526 73.1408 32.4573C73.5154 33.0064 74.2933 33.2955 75.4458 33.2955H75.4169Z" fill="#5679B6"/>
<path d="M99.9644 25.4338C99.9644 26.561 99.4458 27.9194 98.4085 29.5958C97.3713 31.2432 96.1036 32.7173 94.5766 33.989C91.9836 36.1856 88.6703 37.9198 84.6655 39.1337C80.92 40.2898 77.1456 40.839 73.3425 40.839C72.5646 40.839 72.1901 40.1742 72.1901 38.8736C72.1901 37.5729 72.507 36.3879 73.112 35.2029C73.8035 33.8734 74.5814 33.2086 75.417 33.2086C77.8659 33.2086 80.6895 32.8907 83.8875 32.2837C87.6042 31.5322 90.082 30.6652 91.3209 29.6536C91.6667 29.3645 91.8395 29.1044 91.8395 28.9021C91.8395 28.6131 91.5514 28.4107 90.9752 28.3529C89.016 28.1506 87.0568 27.9194 85.0976 27.7171C83.5706 27.4859 82.7927 26.8211 82.7927 25.7228C82.7927 24.162 83.6282 22.3412 85.3281 20.2891L90.8023 21.0405C92.6462 21.3007 94.4902 21.5608 96.3341 21.8498C98.7543 22.399 99.9644 23.6129 99.9644 25.4338Z" fill="#5679B6"/>
<path d="M132.061 9.65313C132.061 12.9481 130.735 15.8672 128.056 18.3818C125.866 20.4628 123.446 21.5033 120.824 21.5033C119.672 21.5033 119.009 21.1854 118.807 20.4917C118.317 20.8674 117.165 21.3299 115.321 21.879C113.362 22.4282 111.777 22.7461 110.538 22.8039C109.242 22.8039 108.118 22.486 107.167 21.7923C106.217 21.0986 105.669 20.2894 105.525 19.3934C105.208 17.6592 104.056 16.7343 102.068 16.5898C100.512 16.5031 98.2646 17.2546 95.3547 18.7864C91.7532 20.694 89.0737 23.0929 87.3162 25.9543L85.4147 20.2605C88.267 16.532 91.7244 13.5839 95.758 11.4162C99.2154 9.56642 102.327 8.61263 105.093 8.61263C107.34 8.61263 108.694 9.79765 109.155 12.1966C109.357 13.3527 109.674 14.1331 110.106 14.5377C110.654 15.058 111.662 15.2892 113.131 15.2603C116.272 15.1447 118.807 14.0175 120.766 11.8786C121.314 10.896 122.092 9.88435 123.071 8.87276C123.561 8.87276 123.82 9.21959 123.82 9.94216C123.82 10.5491 123.676 11.2717 123.359 12.1388C123.043 12.977 122.898 13.4683 122.898 13.5839C122.898 13.7573 122.985 13.8729 123.187 13.8729C125.002 13.7862 126.529 13.266 127.71 12.2833C128.459 11.6763 129.179 10.7514 129.9 9.53752C130.447 8.58373 130.85 8.09238 131.081 8.06348C131.744 8.06348 132.089 8.58373 132.089 9.65313H132.061Z" fill="#5679B6"/>
<path d="M17.8514 75.8698L18.7734 74.8293C19.6378 75.7253 20.8478 76.3323 22.0867 76.3323C23.6714 76.3323 24.5933 75.5519 24.5933 74.3669C24.5933 73.1241 23.729 72.7483 22.5765 72.257L20.8478 71.5055C19.7242 71.0141 18.3989 70.176 18.3989 68.384C18.3989 66.592 20.0123 65.1758 22.1732 65.1758C23.5849 65.1758 24.8815 65.7827 25.717 66.6787L24.9103 67.6614C24.1612 66.9678 23.2968 66.5342 22.1732 66.5342C20.819 66.5342 19.9259 67.2279 19.9259 68.2973C19.9259 69.4534 20.9631 69.8869 21.9139 70.2916L23.6426 71.043C25.0255 71.65 26.1204 72.4882 26.1204 74.2802C26.1204 76.1878 24.5357 77.7196 22.0291 77.7196C20.3292 77.7196 18.8598 77.0259 17.8226 75.9276L17.8514 75.8698Z" fill="#5679B6"/>
<path d="M40.1517 65.3789H41.8804L45.9428 77.4603H44.3293L42.2261 70.7259C41.7939 69.3675 41.4194 68.038 41.016 66.6506H40.9296C40.555 68.038 40.1805 69.3675 39.7483 70.7259L37.6162 77.4603H36.0604L40.1228 65.3789H40.1517ZM38.2213 72.5468H43.7531V73.7607H38.2213V72.5468Z" fill="#5679B6"/>
<path d="M56.7184 65.3789H58.2454V70.4369H63.8348V65.3789H65.3618V77.4603H63.8348V71.7953H58.2454V77.4603H56.7184V65.3789Z" fill="#5679B6"/>
<path d="M80.315 65.3789H82.0437L86.1061 77.4603H84.4927L82.3894 70.7259C81.9572 69.3675 81.5827 68.038 81.1793 66.6506H81.0929C80.7183 68.038 80.3438 69.3675 79.9116 70.7259L77.7796 77.4603H76.2238L80.2862 65.3789H80.315ZM78.3846 72.5468H83.9164V73.7607H78.3846V72.5468Z" fill="#5679B6"/>
<path d="M96.8815 65.3789H100.454C102.903 65.3789 104.603 66.2171 104.603 68.327C104.603 69.512 103.969 70.5814 102.845 70.9571V71.0439C104.286 71.3329 105.294 72.2867 105.294 73.9341C105.294 76.3042 103.422 77.4603 100.742 77.4603H96.9103V65.3789H96.8815ZM100.195 70.5236C102.24 70.5236 103.076 69.7721 103.076 68.5293C103.076 67.1131 102.125 66.5928 100.252 66.5928H98.4085V70.5236H100.195ZM100.512 76.2464C102.557 76.2464 103.767 75.4949 103.767 73.8763C103.767 72.4023 102.615 71.7086 100.512 71.7086H98.4085V76.2464H100.512Z" fill="#5679B6"/>
</svg>
